<?xml version="1.0" encoding="iso-8859-1"?>
<!-- Uploaded to: SVG Repo, www.svgrepo.com, Generator: SVG Repo Mixer Tools -->
<svg fill="#000000" height="800px" width="800px" version="1.1" id="Layer_1" xmlns="http://www.w3.org/2000/svg" xmlns:xlink="http://www.w3.org/1999/xlink" 
	 viewBox="0 0 512.004 512.004" xml:space="preserve">
<g>
	<g>
		<path d="M506.093,107.418c0-25.6-9.899-49.6-27.904-67.584c-18.005-18.005-42.005-27.904-67.584-27.904
			s-49.579,9.92-67.243,27.605l-11.328,10.88c-18.731-16.768-39.125-31.701-60.992-44.437c-8.107-6.272-18.859-7.765-28.48-3.733
			c-10.645,4.501-17.408,14.891-17.259,26.411l0.683,62.08c0.085,18.944-7.275,37.269-20.181,50.304v0.021L38.487,310.703
			c-8.235,8.341-8.192,21.781,0.107,30.059l1.579,1.6l-13.333,14.549C-3.582,395.012-0.51,449.69,33.922,484.1
			c17.984,18.005,41.984,27.904,67.563,27.904s49.579-9.899,67.584-27.904l44.203-44.181c8.96,4.459,18.667,6.976,28.48,6.976
			c16.405,0,32.789-6.229,45.269-18.709l75.413-75.413c19.947-19.947,23.659-49.792,11.712-73.749L478.189,174.98
			C496.194,156.996,506.093,132.996,506.093,107.418z M448.023,144.815L343.255,249.583c-23.509-9.984-52.779-5.867-71.317,12.672
			l-75.435,75.435c-19.307,19.328-23.488,47.979-12.885,71.531l-44.715,44.715c-19.883,19.883-54.933,19.883-74.816,0
			c-19.072-19.051-20.757-49.323-4.885-69.291l11.157-12.117l3.221,3.221c4.011,4.011,9.429,6.251,15.083,6.251h0.085
			c5.675-0.021,11.136-2.304,15.104-6.357l167.275-169.579c12.672-12.8,30.528-19.52,50.027-20.032l62.229,0.704
			c11.221,0.448,21.909-6.699,26.389-17.344c4.032-9.557,2.496-20.352-3.733-28.416c-12.587-21.611-27.328-41.813-43.861-60.373
			l11.029-10.603c19.883-19.861,54.933-19.861,74.816,0c9.941,9.941,15.403,23.232,15.403,37.419
			C463.426,121.604,457.965,134.874,448.023,144.815z"/>
	</g>
</g>
</svg>